<svg width="24" height="24" viewBox="0 0 24 24" fill="none" xmlns="http://www.w3.org/2000/svg">
<g clip-path="url(#clip0_2_56)">
<path d="M1.19385 7.54299V16.456C1.19385 17.559 1.78185 18.578 2.73785 19.13L10.4558 23.586C10.9252 23.8572 11.4577 24 11.9998 24C12.5419 24 13.0745 23.8572 13.5438 23.586L21.2618 19.13C21.7313 18.8591 22.1212 18.4693 22.3922 17.9999C22.6632 17.5305 22.8059 16.998 22.8058 16.456V7.54299C22.806 7.00107 22.6634 6.46867 22.3923 5.99941C22.1213 5.53015 21.7314 5.1406 21.2618 4.86999L13.5438 0.413993C13.0745 0.142768 12.5419 -3.05176e-05 11.9998 -3.05176e-05C11.4577 -3.05176e-05 10.9252 0.142768 10.4558 0.413993L2.73785 4.86999C2.2684 5.14068 1.87853 5.53025 1.60748 5.99949C1.33643 6.46873 1.19377 7.00109 1.19385 7.54299ZM6.59685 10.457V13.544C6.59658 13.6454 6.61637 13.746 6.65508 13.8397C6.69378 13.9335 6.75063 14.0187 6.82237 14.0905C6.89411 14.1622 6.97932 14.2191 7.0731 14.2578C7.16689 14.2965 7.26739 14.3163 7.36885 14.316C7.57351 14.3157 7.76972 14.2343 7.91444 14.0896C8.05916 13.9449 8.14058 13.7487 8.14085 13.544C8.14147 13.3917 8.18707 13.243 8.27193 13.1165C8.35679 12.99 8.47711 12.8914 8.61781 12.8331C8.7585 12.7748 8.91329 12.7593 9.06274 12.7886C9.21219 12.818 9.34964 12.8908 9.45785 12.998C9.60233 13.143 9.68358 13.3393 9.68385 13.544C9.68385 13.8481 9.62395 14.1492 9.50759 14.4301C9.39123 14.711 9.22067 14.9663 9.00565 15.1813C8.79064 15.3963 8.53538 15.5669 8.25445 15.6832C7.97352 15.7996 7.67242 15.8595 7.36835 15.8595C7.06427 15.8595 6.76317 15.7996 6.48224 15.6832C6.20131 15.5669 5.94606 15.3963 5.73104 15.1813C5.51603 14.9663 5.34547 14.711 5.2291 14.4301C5.11274 14.1492 5.05285 13.8481 5.05285 13.544V10.457C5.05285 9.84199 5.29685 9.25399 5.73185 8.81999C5.94662 8.60465 6.20176 8.4338 6.48267 8.31723C6.76357 8.20066 7.06471 8.14065 7.36885 8.14065C7.67298 8.14065 7.97413 8.20066 8.25503 8.31723C8.53593 8.4338 8.79108 8.60465 9.00585 8.81999C9.43985 9.25399 9.68385 9.84299 9.68385 10.457C9.68391 10.5582 9.66398 10.6585 9.62519 10.752C9.58641 10.8456 9.52954 10.9305 9.45785 11.002C9.38651 11.0742 9.30157 11.1315 9.20793 11.1706C9.11429 11.2097 9.01382 11.2298 8.91235 11.2298C8.81087 11.2298 8.71041 11.2097 8.61677 11.1706C8.52313 11.1315 8.43818 11.0742 8.36685 11.002C8.2952 10.9305 8.23836 10.8455 8.19958 10.752C8.1608 10.6585 8.14084 10.5582 8.14085 10.457C8.14111 10.3555 8.12132 10.255 8.08262 10.1612C8.04392 10.0675 7.98706 9.98226 7.91532 9.91052C7.84358 9.83878 7.75837 9.78192 7.66459 9.74322C7.57081 9.70452 7.4703 9.68473 7.36885 9.68499C7.26743 9.68486 7.16698 9.70474 7.07326 9.74349C6.97954 9.78224 6.89438 9.8391 6.82267 9.91081C6.75096 9.98253 6.6941 10.0677 6.65534 10.1614C6.61659 10.2551 6.59672 10.3556 6.59685 10.457ZM18.9468 13.544C18.9471 13.6454 18.9273 13.746 18.8886 13.8397C18.8499 13.9335 18.7931 14.0187 18.7213 14.0905C18.6496 14.1622 18.5644 14.2191 18.4706 14.2578C18.3768 14.2965 18.2763 14.3163 18.1748 14.316H17.4028V15.088C17.3928 15.2859 17.307 15.4725 17.1634 15.609C17.0197 15.7455 16.8291 15.8217 16.6308 15.8217C16.4326 15.8217 16.242 15.7455 16.0983 15.609C15.9547 15.4725 15.8689 15.2859 15.8588 15.088V14.316H14.3148V15.088C14.3142 15.2403 14.2686 15.389 14.1838 15.5155C14.0989 15.642 13.9786 15.7406 13.8379 15.7989C13.6972 15.8572 13.5424 15.8727 13.393 15.8433C13.2435 15.814 13.1061 15.7412 12.9978 15.634C12.8534 15.489 12.7721 15.2927 12.7718 15.088V14.316H11.9998C11.7951 14.316 11.5987 14.2347 11.454 14.0899C11.3092 13.9451 11.2278 13.7487 11.2278 13.544C11.2278 13.3392 11.3092 13.1429 11.454 12.9981C11.5987 12.8533 11.7951 12.772 11.9998 12.772H12.7718V11.229H11.9998C11.7951 11.229 11.5987 11.1477 11.454 11.0029C11.3092 10.8581 11.2278 10.6617 11.2278 10.457C11.2278 10.2522 11.3092 10.0559 11.454 9.91111C11.5987 9.76633 11.7951 9.68499 11.9998 9.68499H12.7718V8.91299C12.7725 8.76069 12.8181 8.61197 12.9029 8.48549C12.9878 8.35901 13.1081 8.26042 13.2488 8.20209C13.3895 8.14377 13.5443 8.1283 13.6937 8.15764C13.8432 8.18697 13.9806 8.25981 14.0888 8.36699C14.2333 8.512 14.3146 8.70829 14.3148 8.91299V9.68499H15.8588V8.91299C15.8689 8.71504 15.9547 8.52853 16.0983 8.39198C16.242 8.25544 16.4326 8.1793 16.6308 8.1793C16.8291 8.1793 17.0197 8.25544 17.1634 8.39198C17.307 8.52853 17.3928 8.71504 17.4028 8.91299V9.68499H18.1748C18.3796 9.68499 18.576 9.76633 18.7207 9.91111C18.8655 10.0559 18.9468 10.2522 18.9468 10.457C18.9468 10.6617 18.8655 10.8581 18.7207 11.0029C18.576 11.1477 18.3796 11.229 18.1748 11.229H17.4028V12.772H18.1748C18.3793 12.773 18.575 12.8547 18.7196 12.9993C18.8641 13.1438 18.9458 13.3396 18.9468 13.544ZM15.8588 11.229H14.3148V12.772H15.8588V11.229Z" fill="black"/>
</g>
<defs>
<clipPath id="clip0_2_56">
<rect width="24" height="24" fill="white"/>
</clipPath>
</defs>
</svg>
