<svg width="24" height="24" viewBox="0 0 24 24" fill="none" xmlns="http://www.w3.org/2000/svg">
<g clip-path="url(#clip0_2_72)">
<path d="M4.105 4.10501C4.105 4.10501 9.158 1.58001 11.684 0.316012C12.1438 0.089374 12.6528 -0.0188997 13.165 0.00101214C13.931 0.0480121 14.842 0.789012 14.842 0.789012L24 9.94801V19.737H19.737V24H9.789L0.789 15C0.303 14.5 0 13.795 0 13.105C0 12.786 0.18 12.287 0.316 12L4.105 4.10501ZM4.784 4.78401V16.571C4.786 17.114 4.805 17.595 5.282 18.079L10.204 23H18.737V18.737L4.784 4.78401ZM16.839 4.10601C15.94 3.21001 15.03 2.32601 14.099 1.46301C13.797 1.19601 13.532 0.995012 13.029 1.00101C12.659 1.01501 12.159 1.19601 12.159 1.19601L6.341 4.10501L16.839 4.10601Z" fill="black"/>
</g>
<defs>
<clipPath id="clip0_2_72">
<rect width="24" height="24" fill="white"/>
</clipPath>
</defs>
</svg>
