<svg width="45" height="45" viewBox="0 0 45 45" fill="none" xmlns="http://www.w3.org/2000/svg">
<path d="M38.0951 8.17645C35.1771 6.83729 32.0981 5.88154 28.9347 5.33301C28.9061 5.32818 28.8766 5.33235 28.8505 5.34494C28.8243 5.35753 28.8026 5.37793 28.7885 5.40332C28.3919 6.10645 27.9532 7.02613 27.6466 7.74613C24.2368 7.22866 20.7683 7.22866 17.3585 7.74613C17.0165 6.94406 16.6297 6.16188 16.1997 5.40332C16.1853 5.3782 16.1636 5.35805 16.1375 5.34549C16.1114 5.33294 16.0821 5.32859 16.0535 5.33301C12.8896 5.87931 9.8103 6.83516 6.89318 8.17645C6.86822 8.18597 6.84735 8.20386 6.83412 8.22707C1.00099 16.943 -0.59932 25.4452 0.185368 33.8405C0.18818 33.8799 0.213493 33.9193 0.24443 33.9446C3.64118 36.4606 7.44049 38.3817 11.4804 39.6258C11.5089 39.6348 11.5395 39.6345 11.5679 39.6249C11.5962 39.6153 11.6207 39.5969 11.6379 39.5724C12.5041 38.3911 13.2747 37.1452 13.9385 35.8346C13.9477 35.8167 13.9529 35.797 13.9538 35.777C13.9547 35.7569 13.9514 35.7369 13.9439 35.7182C13.9364 35.6996 13.9251 35.6827 13.9106 35.6688C13.896 35.6549 13.8787 35.6443 13.8597 35.6377C12.648 35.172 11.4745 34.6125 10.3497 33.9643C10.3292 33.9524 10.3119 33.9356 10.2995 33.9154C10.287 33.8952 10.2798 33.8722 10.2784 33.8485C10.277 33.8248 10.2815 33.8011 10.2915 33.7796C10.3015 33.7581 10.3167 33.7394 10.3357 33.7252C10.5719 33.548 10.8082 33.3624 11.0332 33.1768C11.0531 33.1608 11.0769 33.1505 11.1022 33.147C11.1274 33.1436 11.1532 33.147 11.1766 33.1571C18.5426 36.5208 26.516 36.5208 33.7919 33.1571C33.8162 33.1462 33.8429 33.1423 33.8692 33.1458C33.8956 33.1493 33.9204 33.16 33.941 33.1768C34.166 33.3624 34.4022 33.548 34.6385 33.7252C34.6576 33.7392 34.673 33.7577 34.6833 33.7791C34.6935 33.8005 34.6983 33.8241 34.6971 33.8477C34.696 33.8714 34.6891 33.8945 34.6769 33.9148C34.6647 33.9351 34.6476 33.9521 34.6272 33.9643C33.5051 34.6183 32.33 35.1772 31.1144 35.6349C31.0956 35.6421 31.0785 35.6532 31.0643 35.6675C31.0501 35.6818 31.039 35.6989 31.0319 35.7178C31.0247 35.7366 31.0216 35.7567 31.0227 35.7769C31.0239 35.797 31.0292 35.8167 31.0385 35.8346C31.7135 37.1424 32.4869 38.3911 33.3363 39.5724C33.3535 39.5969 33.378 39.6153 33.4063 39.6249C33.4346 39.6345 33.4653 39.6348 33.4938 39.6258C37.5405 38.3856 41.3459 36.4643 44.7466 33.9446C44.7635 33.9326 44.7776 33.9171 44.7878 33.8991C44.798 33.8811 44.8041 33.8611 44.8057 33.8405C45.7451 24.1346 43.2335 15.7027 38.1513 8.22988C38.1462 8.21754 38.1385 8.20641 38.1288 8.1972C38.1192 8.188 38.1076 8.18093 38.0951 8.17645ZM15.0382 28.7274C12.8191 28.7274 10.9938 26.6911 10.9938 24.1936C10.9938 21.6933 12.7854 19.6571 15.0382 19.6571C17.3079 19.6571 19.1163 21.7102 19.0826 24.1936C19.0826 26.6911 17.291 28.7274 15.0382 28.7274ZM29.9894 28.7274C27.7732 28.7274 25.9451 26.6911 25.9451 24.1936C25.9451 21.6933 27.7366 19.6571 29.9894 19.6571C32.2591 19.6571 34.0704 21.7102 34.0338 24.1936C34.0338 26.6911 32.2591 28.7274 29.9894 28.7274Z" fill="white"/>
</svg>
