<svg width="24" height="24" viewBox="0 0 24 24" fill="none" xmlns="http://www.w3.org/2000/svg">
<path d="M24 9.241H21.532V16.806H20.107V9.241H17.645V8.001H24V9.241ZM17.148 16.806H12.327V8.001H16.957V9.241H13.752V11.735H16.705V12.969H13.752V15.573H17.148V16.806ZM10.44 16.806H8.882L4.78 10.334C4.67739 10.1729 4.59097 10.0021 4.522 9.824H4.486C4.518 10.013 4.534 10.416 4.534 11.034V16.806H3.157V8.001H4.816L8.781 14.321C8.948 14.582 9.056 14.763 9.104 14.861H9.128C9.088 14.628 9.068 14.232 9.068 13.676V8H10.44V16.806ZM1.737 16.113C1.737 16.2219 1.71452 16.3298 1.67083 16.4305C1.62715 16.5311 1.56312 16.6225 1.48242 16.6995C1.40171 16.7765 1.3059 16.8376 1.20048 16.8792C1.09505 16.9208 0.982072 16.9421 0.868001 16.942C0.753925 16.942 0.640968 16.9205 0.535589 16.8788C0.43021 16.8371 0.334476 16.7759 0.253861 16.6988C0.173247 16.6218 0.109332 16.5302 0.0657724 16.4296C0.022213 16.3289 -0.000136975 16.2209 6.31568e-07 16.112C0.000278106 15.8923 0.0918503 15.6817 0.254602 15.5265C0.417353 15.3712 0.637974 15.284 0.868001 15.284C0.982072 15.2839 1.09505 15.3052 1.20048 15.3468C1.3059 15.3884 1.40171 15.4495 1.48242 15.5265C1.56312 15.6035 1.62715 15.6949 1.67083 15.7955C1.71452 15.8962 1.737 16.0041 1.737 16.113Z" fill="black"/>
</svg>
