<svg width="21" height="21" viewBox="0 0 21 21" fill="none" xmlns="http://www.w3.org/2000/svg">
<path d="M8.6414 20.2788C12.1858 20.5058 17.6287 20.1534 17.7574 18.4761C17.7574 18.4761 17.51 19.1113 14.8279 19.6166C13.3467 19.8837 11.6418 20.036 9.90074 20.036C8.47471 20.036 7.07296 19.9336 5.70206 19.7361L5.8589 19.7544C5.8589 19.7538 6.31237 20.1292 8.6414 20.2788ZM12.4686 0.658875C12.4686 0.658875 14.5142 2.70441 10.5294 5.84981C7.33415 8.37309 9.80099 9.81225 10.5288 11.4562C8.66371 9.77222 7.29543 8.29237 8.21287 6.91359C9.56081 4.88906 13.2942 3.90797 12.4686 0.658875ZM14.6953 15.0793C18.388 13.1604 16.6805 11.3157 15.4894 11.5651C15.326 11.5959 15.1842 11.6353 15.0471 11.6845L15.0667 11.6786C15.1448 11.569 15.2525 11.4844 15.3778 11.4365L15.3824 11.4352C17.7403 10.6063 19.5535 13.8797 14.6212 15.1764C14.6513 15.1495 14.6763 15.1174 14.694 15.0813L14.6953 15.0793ZM8.27915 11.4922C8.27915 11.4922 4.70193 12.3421 7.01324 12.6499C7.63537 12.7011 8.35987 12.7299 9.09093 12.7299C10.0254 12.7299 10.9488 12.682 11.859 12.5895L11.7448 12.5987C13.226 12.474 14.7117 12.2076 14.7117 12.2076C14.3632 12.3598 14.0673 12.5206 13.7871 12.7037L13.8113 12.6892C10.179 13.6447 3.16171 13.2005 5.18231 12.2233C6.07284 11.762 7.12677 11.4916 8.24371 11.4916C8.25618 11.4916 8.26865 11.4916 8.28112 11.4916L8.27915 11.4922ZM16.5111 17.474C16.5111 17.474 17.0683 17.9327 15.8989 18.2864C13.6748 18.9604 6.64181 19.1632 4.68946 18.3133C3.98727 18.0075 5.30437 17.5836 5.71781 17.495C5.90877 17.4464 6.12862 17.4182 6.35437 17.4182C6.36946 17.4182 6.3839 17.4182 6.39899 17.4188H6.39702C5.61543 16.8682 1.34849 18.499 4.22943 18.9663C12.0861 20.2401 18.5488 18.3921 16.5111 17.474ZM11.4154 10.0695C11.6214 10.3169 11.7468 10.6391 11.7468 10.9896C11.7468 11.4614 11.5197 11.8807 11.1693 12.1439L11.1653 12.1465C11.1653 12.1465 13.5757 10.9016 12.4686 9.34369C11.4344 7.89075 10.6416 7.16887 14.9348 4.67906C14.9348 4.67841 8.19712 6.36103 11.4154 10.0695ZM7.44571 13.7255C7.44571 13.7255 6.60243 14.3496 7.88999 14.4834C8.45371 14.5543 9.10537 14.5943 9.76687 14.5943C10.9652 14.5943 12.1326 14.4618 13.2548 14.2104L13.1485 14.2301C13.3743 14.4414 13.644 14.6094 13.9419 14.7184L13.9583 14.7236C9.30093 16.086 4.11196 14.8299 7.44506 13.7248L7.44571 13.7255ZM7.91756 15.8799C7.91756 15.8799 7.16549 16.3177 8.45306 16.4653C8.9249 16.5355 9.46893 16.5756 10.0228 16.5756C10.9114 16.5756 11.7757 16.4725 12.6045 16.277L12.5284 16.2921C12.8348 16.4791 13.1912 16.6576 13.5633 16.8053L13.6118 16.8223C9.75834 18.4734 4.89224 16.7258 7.91821 15.8799H7.91756Z" fill="black"/>
</svg>
