<svg width="24" height="24" viewBox="0 0 24 24" fill="none" xmlns="http://www.w3.org/2000/svg">
<g clip-path="url(#clip0_2_60)">
<path d="M23.6422 5.43C23.6515 5.46252 23.6562 5.49617 23.6562 5.53V10.679C23.6562 10.814 23.5832 10.939 23.4672 11.005L19.1442 13.495V18.429C19.1441 18.495 19.1267 18.5599 19.0937 18.6171C19.0607 18.6742 19.0133 18.7218 18.9562 18.755L9.93024 23.949C9.90933 23.9605 9.88719 23.9695 9.86424 23.976C9.85624 23.978 9.84824 23.984 9.84024 23.986C9.7775 24.004 9.71097 24.004 9.64824 23.986C9.63724 23.984 9.62824 23.978 9.61824 23.974C9.59824 23.966 9.57624 23.96 9.55624 23.949L0.533238 18.755C0.475838 18.7221 0.428137 18.6746 0.394952 18.6174C0.361767 18.5601 0.344274 18.4952 0.344238 18.429V2.974C0.344238 2.941 0.349238 2.908 0.358238 2.876C0.361238 2.864 0.368238 2.856 0.372238 2.844C0.378254 2.82405 0.385948 2.80465 0.395238 2.786C0.399238 2.773 0.410238 2.764 0.418238 2.753L0.451238 2.708C0.463238 2.698 0.476238 2.69 0.488238 2.681C0.502238 2.669 0.515238 2.657 0.529238 2.647L5.04324 0.0499963C5.10025 0.0170832 5.16491 -0.000244141 5.23074 -0.000244141C5.29657 -0.000244141 5.36123 0.0170832 5.41824 0.0499963L9.93024 2.647H9.93224C9.94724 2.657 9.95924 2.668 9.97224 2.68L10.0102 2.707C10.0232 2.721 10.0302 2.737 10.0432 2.752C10.0512 2.763 10.0632 2.773 10.0682 2.785C10.0782 2.805 10.0852 2.823 10.0922 2.843C10.0952 2.854 10.1022 2.864 10.1052 2.875C10.1152 2.906 10.1192 2.939 10.1192 2.973V12.625L13.8792 10.461V5.527C13.8792 5.494 13.8832 5.461 13.8922 5.429C13.8952 5.419 13.9022 5.409 13.9052 5.397C13.9119 5.37683 13.92 5.35712 13.9292 5.338C13.9362 5.326 13.9472 5.318 13.9542 5.305C13.9662 5.29 13.9752 5.275 13.9872 5.262C13.9992 5.25 14.0122 5.242 14.0242 5.234C14.0382 5.224 14.0502 5.211 14.0652 5.202H14.0662L18.5792 2.604C18.6362 2.57108 18.7009 2.55376 18.7667 2.55376C18.8326 2.55376 18.8972 2.57108 18.9542 2.604L23.4672 5.202C23.4832 5.212 23.4942 5.223 23.5092 5.233C23.5212 5.243 23.5342 5.251 23.5452 5.261C23.5582 5.275 23.5672 5.291 23.5792 5.305C23.5872 5.317 23.5982 5.326 23.6032 5.338C23.6142 5.358 23.6212 5.378 23.6272 5.398C23.6332 5.408 23.6392 5.419 23.6422 5.43ZM22.9022 10.462V6.179L21.3242 7.087L19.1422 8.343V12.626L22.9022 10.462ZM18.3922 18.212V13.925L16.2452 15.15L10.1192 18.648V22.973L18.3922 18.212ZM1.09324 3.624V18.212L9.36624 22.973V18.648L5.04424 16.203L5.04224 16.2H5.04024C5.02624 16.19 5.01524 16.179 5.00024 16.169C4.98924 16.159 4.97624 16.151 4.96524 16.142L4.96424 16.14C4.95124 16.128 4.94324 16.115 4.93324 16.1C4.92324 16.089 4.91224 16.078 4.90524 16.064H4.90324C4.89524 16.05 4.89024 16.033 4.88324 16.017C4.87724 16.001 4.86924 15.99 4.86524 15.974C4.86146 15.9552 4.85879 15.9361 4.85724 15.917C4.85524 15.903 4.85124 15.89 4.85124 15.876V5.789L2.67124 4.532L1.09324 3.624ZM5.23024 0.809996L1.47024 2.974L5.23024 5.138L8.98824 2.974L5.23024 0.809996ZM7.18624 14.315L9.36824 13.059V3.624L7.78824 4.534L5.60624 5.789V15.224L7.18624 14.315ZM18.7672 3.365L15.0072 5.528L18.7672 7.691L22.5262 5.527L18.7672 3.365ZM18.3912 8.343L16.2102 7.087L14.6302 6.18V10.463L16.8122 11.719L18.3922 12.627L18.3912 8.343ZM9.74124 17.997L15.2552 14.849L18.0112 13.277L14.2542 11.114L9.93124 13.603L5.99024 15.873L9.74124 17.997Z" fill="black"/>
</g>
<defs>
<clipPath id="clip0_2_60">
<rect width="24" height="24" fill="white"/>
</clipPath>
</defs>
</svg>
