<svg width="24" height="24" viewBox="0 0 24 24" fill="none" xmlns="http://www.w3.org/2000/svg">
<g clip-path="url(#clip0_2_68)">
<path d="M4.72388 2.50501C4.72388 2.50501 4.64388 2.63201 4.71988 2.82001C4.76588 2.93601 4.90588 3.07601 5.05989 3.22401C5.05989 3.22401 6.67489 4.80001 6.87289 5.02801C7.76789 6.06101 8.15689 7.07801 8.19288 8.48101C8.21488 9.38101 8.04188 10.173 7.61988 11.094C6.86388 12.743 5.26989 14.562 2.80988 16.584L3.16988 16.464C3.40288 16.291 3.71788 16.105 4.46188 15.698C6.17488 14.762 8.09789 13.9 10.4609 13.012C13.8599 11.735 19.4509 10.236 22.6329 9.74901L22.9639 9.69801L22.9139 9.61801C22.6219 9.16601 22.4239 8.887 22.1839 8.59101C21.4869 7.72801 20.6419 7.02401 19.6069 6.44501C18.1849 5.64801 16.3399 5.02901 14.0069 4.56501C13.2786 4.42806 12.5482 4.30305 11.8159 4.19001C10.5059 3.9891 9.19783 3.77576 7.89189 3.55001C7.46689 3.47501 6.83188 3.36901 6.41088 3.27801C6.08622 3.20903 5.76544 3.1229 5.44988 3.02001C5.18188 2.91501 4.80488 2.81301 4.72388 2.50501ZM5.65988 3.41401C5.66288 3.41201 5.72289 3.43101 5.79689 3.45601C5.93289 3.50201 6.11288 3.55601 6.32289 3.61501C6.46888 3.65501 6.62989 3.69901 6.80189 3.74201C7.01989 3.79801 7.20089 3.84601 7.20289 3.84901C7.22689 3.87601 7.59388 5.04701 7.71888 5.49601C7.76688 5.66801 7.80289 5.81101 7.79989 5.81401C7.76503 5.77064 7.73487 5.72372 7.70989 5.67401C7.28589 4.92801 6.61288 4.16901 5.83589 3.55801C5.77548 3.51217 5.71677 3.46414 5.65988 3.41401ZM7.44988 3.90801C7.46789 3.90701 7.54888 3.92001 7.64489 3.94201C8.26389 4.07801 9.36988 4.29201 10.0799 4.41201C10.1989 4.43201 10.2959 4.45201 10.2959 4.45901C10.2669 4.48501 10.2338 4.50597 10.1979 4.52101C10.0789 4.58101 9.59589 4.87001 9.43489 4.97801C9.03189 5.24801 8.66888 5.53701 8.40488 5.79901C8.34086 5.86467 8.27517 5.92869 8.20789 5.99101C8.20489 5.99101 8.18588 5.92901 8.16688 5.85401C7.99707 5.24492 7.77974 4.6501 7.51689 4.07501C7.49049 4.02122 7.46679 3.96615 7.44589 3.91001C7.44589 3.90901 7.44588 3.90801 7.44988 3.90801ZM10.5969 4.50601C10.6169 4.51301 10.6569 4.63601 10.7259 4.91001C10.8853 5.55611 10.937 6.22408 10.8789 6.88701L10.8669 6.92501L10.6799 6.86501C10.2919 6.74101 9.65988 6.55501 9.11788 6.40501C8.9288 6.35662 8.74196 6.29989 8.55788 6.23501C8.55788 6.21301 9.00688 5.76401 9.19988 5.59301C9.56888 5.26701 10.5619 4.49501 10.5969 4.50601ZM10.8469 4.54201C10.8579 4.53201 12.3509 4.79001 13.0289 4.92001C13.5349 5.01701 14.2659 5.17001 14.3099 5.18901C14.3319 5.19701 14.2559 5.23901 14.0129 5.34901C13.0529 5.78101 12.3409 6.16901 11.6329 6.64201C11.4469 6.76601 11.2919 6.86801 11.2889 6.86801C11.2849 6.86801 11.2829 6.76401 11.2829 6.63801C11.2829 5.94801 11.1439 5.25101 10.8919 4.66201C10.8732 4.62349 10.8581 4.58332 10.8469 4.54201ZM14.7069 5.30601C14.7179 5.31701 14.6689 5.61201 14.6269 5.78601C14.4949 6.32601 14.1449 7.13001 13.7129 7.88501C13.6675 7.97017 13.6168 8.05233 13.5609 8.13101C13.4848 8.09877 13.4116 8.06031 13.3419 8.01601C12.9199 7.76901 12.4419 7.53601 11.9169 7.31901C11.8229 7.28208 11.7302 7.24205 11.6389 7.19901C11.6149 7.17701 12.7819 6.40401 13.4009 6.03301C13.8959 5.73601 14.6929 5.29201 14.7069 5.30601ZM14.9829 5.34901C15.0159 5.34901 15.6779 5.52901 16.0199 5.63201C16.8729 5.88701 17.8569 6.24601 18.4949 6.53601L18.7599 6.65601L18.5729 6.69901C17.0119 7.05901 15.6729 7.47201 14.3849 7.99501C14.2779 8.03901 14.1849 8.07501 14.1779 8.07501C14.196 8.01078 14.2212 7.94874 14.2529 7.89001C14.6409 7.06701 14.8909 6.20301 14.9559 5.47001C14.9619 5.40301 14.9739 5.34901 14.9829 5.34901ZM8.40288 6.86101C8.41289 6.85101 8.91688 6.96901 9.19188 7.04601C9.60489 7.16201 10.4839 7.45601 10.4839 7.47901C10.4839 7.48301 10.3869 7.56801 10.2689 7.66701C9.79388 8.06401 9.33489 8.48001 8.78589 9.01001C8.68704 9.10906 8.58429 9.20413 8.47788 9.29501C8.47088 9.29501 8.46789 9.27201 8.47189 9.24501C8.55489 8.63401 8.53688 7.85001 8.42189 7.05201C8.41053 6.98925 8.40385 6.92575 8.40189 6.86201L8.40288 6.86101ZM19.0129 6.87101C19.0199 6.87901 18.7789 7.25601 18.6289 7.47101C18.4089 7.78501 18.0919 8.19701 17.3679 9.10801L16.4139 10.31C16.3268 10.423 16.2371 10.5341 16.1449 10.643C16.1419 10.643 16.0949 10.577 16.0419 10.497C15.6331 9.88703 15.138 9.33965 14.5719 8.87201C14.4832 8.79772 14.3932 8.72504 14.3019 8.65401C14.2749 8.63589 14.2501 8.61475 14.2279 8.59101C14.2279 8.58101 14.8449 8.31701 15.3159 8.12501C16.2284 7.75824 17.1551 7.42798 18.0939 7.13501C18.5359 7.00001 19.0059 6.86501 19.0129 6.87101ZM19.2909 6.94401C19.3638 6.96865 19.4333 7.00224 19.4979 7.04401C20.3796 7.54915 21.1952 8.16184 21.9259 8.86801C22.1199 9.05801 22.5929 9.55101 22.5859 9.55501L22.2229 9.58401C20.6929 9.69901 18.7369 10.024 16.8529 10.477C16.7249 10.507 16.6149 10.533 16.6069 10.533C16.5999 10.533 16.7399 10.393 16.9179 10.221C18.0249 9.15801 18.5289 8.48701 19.1229 7.28701C19.2109 7.10901 19.2859 6.95401 19.2889 6.94501H19.2909V6.94401ZM11.2029 7.77401C11.2539 7.78401 11.7259 8.00401 12.0819 8.18201C12.4069 8.34501 12.8999 8.60801 12.9249 8.63101C12.9279 8.63401 12.7549 8.72401 12.5389 8.83201C11.8559 9.17401 11.2709 9.49601 10.6609 9.86901C10.4859 9.97601 10.3409 10.063 10.3359 10.063C10.3209 10.063 10.3259 10.05 10.4239 9.87201C10.7616 9.24214 11.01 8.56835 11.1619 7.87001C11.1759 7.80801 11.1919 7.77001 11.2029 7.77301V7.77401ZM10.7279 7.85801C10.7379 7.86801 10.6159 8.31801 10.5379 8.55801C10.3266 9.18943 10.0466 9.79573 9.70288 10.366L9.61288 10.513L9.40988 10.316C9.21236 10.1147 8.9842 9.94594 8.73389 9.81601C8.67193 9.78802 8.61297 9.75385 8.55788 9.71401C8.55788 9.68401 9.17789 9.12101 9.65588 8.71601C9.99889 8.42601 10.7199 7.84901 10.7279 7.85801ZM13.6159 9.04601L13.7929 9.16101C14.1999 9.42501 14.6809 9.78001 15.0479 10.085C15.2539 10.257 15.6529 10.615 15.7349 10.701L15.7789 10.748L15.4849 10.83C13.9816 11.24 12.4969 11.7151 11.0349 12.254C10.8679 12.315 10.7249 12.366 10.7149 12.366C10.6939 12.366 10.6729 12.385 11.0479 12.04C12.0079 11.157 12.8549 10.184 13.4879 9.23801L13.6159 9.04601ZM12.8569 9.23601C12.8659 9.24501 12.3649 9.94601 12.0679 10.342C11.7119 10.815 11.0779 11.607 10.6419 12.122C10.5306 12.2578 10.4152 12.3902 10.2959 12.519C10.2859 12.522 10.2809 12.469 10.2799 12.386C10.2799 11.946 10.1679 11.476 9.97188 11.078C9.88888 10.91 9.87488 10.87 9.89188 10.854C9.95988 10.792 11.0189 10.188 11.6859 9.83101C12.1449 9.58501 12.8489 9.22701 12.8569 9.23601ZM8.26689 10.361C8.55749 10.5002 8.83014 10.6742 9.07889 10.879C9.08689 10.884 8.99189 10.962 8.86889 11.051C8.52389 11.3 7.99889 11.695 7.69589 11.937C7.37589 12.192 7.36489 12.2 7.40089 12.144C7.64088 11.777 7.76089 11.57 7.88689 11.304C7.99989 11.068 8.11089 10.788 8.19089 10.544C8.20739 10.4795 8.23234 10.4179 8.26689 10.361ZM9.48988 11.321C9.50688 11.318 9.52988 11.349 9.62888 11.496C9.83588 11.806 9.99488 12.218 10.0359 12.554L10.0439 12.627L9.54688 12.819C8.65688 13.165 7.83589 13.506 7.28089 13.759C7.12589 13.831 6.85288 13.961 6.67388 14.051C6.49488 14.141 6.34889 14.211 6.34889 14.207C6.34889 14.203 6.46089 14.118 6.59889 14.019C7.68588 13.229 8.62389 12.365 9.33088 11.5C9.40588 11.408 9.47488 11.328 9.48388 11.322C9.48573 11.3209 9.48777 11.3203 9.48988 11.32V11.321ZM8.92588 11.461C8.94088 11.475 8.52489 11.945 8.24488 12.231C7.54489 12.946 6.84889 13.506 5.98888 14.052C5.88089 14.121 5.78289 14.182 5.76889 14.19C5.74589 14.204 5.77689 14.168 6.15489 13.756C6.39289 13.497 6.57488 13.282 6.78289 13.013C6.91889 12.836 6.94489 12.811 7.14489 12.667C7.68189 12.279 8.91188 11.446 8.92588 11.46V11.461ZM9.92488 6.01848e-06C9.84488 -0.00999398 8.55388 0.455006 7.72488 0.791006C6.60188 1.24801 5.72889 1.68501 5.19089 2.06301C4.99089 2.20301 4.73888 2.45601 4.70288 2.55301C4.6887 2.59245 4.68159 2.63409 4.68189 2.67601L5.16989 3.13601L6.32789 3.50601L9.08688 4.00001L12.2399 4.54201L12.2719 4.27201L12.2439 4.26701L11.8289 4.20101L11.7439 4.05301C11.3153 3.2969 10.9225 2.52104 10.5669 1.72801C10.3593 1.2514 10.1823 0.762078 10.0369 0.263006C9.96888 0.020006 9.96188 0.00500602 9.92488 6.01848e-06ZM9.86388 0.186006H9.86889C9.87189 0.189006 9.88588 0.291006 9.90088 0.411006C9.96288 0.919006 10.0769 1.41101 10.2549 1.94101C10.3889 2.34101 10.3909 2.31801 10.2309 2.27301C9.86088 2.17001 8.19889 1.88501 6.99689 1.71801C6.87754 1.70278 6.75851 1.68511 6.63988 1.66501C6.62489 1.65001 7.50689 1.18801 7.89788 1.00501C8.39888 0.773006 9.76488 0.205006 9.86388 0.186006ZM6.36189 1.81401L6.50288 1.86201C7.27488 2.12401 9.20888 2.49401 10.2779 2.58201C10.3979 2.59201 10.4999 2.60301 10.5029 2.60601C10.5059 2.60901 10.4029 2.66401 10.2749 2.72801C9.75988 2.98601 9.19188 3.30101 8.79888 3.54701C8.68389 3.61901 8.57889 3.67701 8.56389 3.67601C8.50706 3.66801 8.45039 3.65901 8.39389 3.64901L8.24989 3.62601L7.88489 3.27101C7.24389 2.65101 6.74389 2.17101 6.54989 1.99101L6.36189 1.81401ZM6.21888 1.92801L6.72989 2.56601C7.01189 2.91601 7.29389 3.26501 7.35589 3.34001C7.41889 3.41501 7.46689 3.47801 7.46389 3.48001C7.44989 3.49101 6.72389 3.35001 6.33889 3.26101C6.06794 3.20342 5.79995 3.13267 5.53588 3.04901L5.33589 2.98501L5.33688 2.93601C5.33988 2.69101 5.64888 2.32901 6.17288 1.96001L6.21888 1.92801ZM10.5709 2.79701C10.5859 2.79801 10.6029 2.82901 10.6479 2.92801C10.7719 3.20001 11.1579 3.93601 11.2509 4.07801C11.2809 4.12501 11.3309 4.12801 10.8179 4.04501C9.58788 3.84701 9.18888 3.78001 9.18888 3.77201C9.21393 3.75027 9.24186 3.7321 9.27188 3.71801C9.66426 3.49784 10.0349 3.24103 10.3789 2.95101L10.5539 2.80401C10.5599 2.79901 10.5659 2.79601 10.5709 2.79701ZM14.8799 11.205L10.0719 12.773L5.89189 14.619L4.72188 14.929C4.42388 15.211 4.10888 15.497 3.77388 15.789C3.40388 16.11 3.05788 16.401 2.79388 16.611C2.44847 16.8967 2.12951 17.213 1.84088 17.556C1.50888 17.97 1.24888 18.41 1.13688 18.749C0.936885 19.359 1.03388 19.977 1.42188 20.547C1.91688 21.275 2.90188 22.015 4.04688 22.519C4.63188 22.775 5.61689 23.107 6.35688 23.293C7.58988 23.605 9.97088 23.943 11.2829 23.993C11.5489 24.003 11.9029 24.003 11.9199 23.991C11.9479 23.972 12.1529 23.586 12.3899 23.101C13.1959 21.455 13.7789 19.911 14.0929 18.593C14.2829 17.794 14.4309 16.73 14.5269 15.468C14.5539 15.114 14.5639 13.935 14.5429 13.534C14.5179 12.962 14.4568 12.3922 14.3599 11.828C14.3472 11.7791 14.3431 11.7283 14.3479 11.678C14.3619 11.668 14.4069 11.653 14.9979 11.481L14.8799 11.205ZM13.7799 11.85C13.8249 11.85 13.9399 12.964 13.9709 13.67C13.9769 13.821 13.9759 13.917 13.9669 13.917C13.9389 13.917 13.3519 13.572 12.9349 13.311C12.5414 13.0631 12.1539 12.8057 11.7729 12.539C11.7379 12.511 11.7419 12.51 12.0389 12.408C12.5439 12.234 13.7429 11.85 13.7809 11.85H13.7799ZM11.3319 12.653C11.3619 12.653 11.4469 12.7 11.6469 12.825C12.3969 13.295 13.4129 13.86 13.8469 14.05C13.9829 14.11 13.9979 14.086 13.6869 14.297C13.0249 14.747 12.2009 15.189 11.1899 15.639C11.0807 15.689 10.9703 15.7363 10.8589 15.781C10.8663 15.713 10.8807 15.646 10.9019 15.581C11.1469 14.676 11.2849 13.761 11.2889 13.027C11.2909 12.665 11.2909 12.663 11.3259 12.654H11.3319V12.653ZM10.8279 12.846C10.8489 12.868 10.8339 13.68 10.8079 13.902C10.7317 14.527 10.5917 15.1426 10.3899 15.739C10.3759 15.756 9.87888 15.271 9.71388 15.079C9.45262 14.7827 9.228 14.456 9.04488 14.106C8.96288 13.944 8.83089 13.622 8.84289 13.613C8.89889 13.573 10.8139 12.833 10.8279 12.846ZM8.45289 13.782C8.45689 13.782 8.46089 13.783 8.46289 13.786C8.48506 13.8281 8.50379 13.8719 8.51889 13.917C8.63489 14.232 8.89489 14.699 9.12088 14.997C9.41702 15.3891 9.75838 15.7449 10.1379 16.057C10.1609 16.077 10.1679 16.073 9.57588 16.297C8.81801 16.5828 8.05311 16.8495 7.28189 17.097C6.95489 17.203 6.67789 17.292 6.66688 17.297C6.63388 17.308 6.64388 17.288 6.73988 17.139C7.16688 16.473 7.81289 15.169 8.17489 14.247C8.23689 14.087 8.29688 13.927 8.30788 13.891C8.32288 13.839 8.33888 13.821 8.38788 13.799C8.40797 13.7885 8.43021 13.7826 8.45289 13.782ZM7.72488 14.082C7.73489 14.091 7.55089 14.48 7.36889 14.833C7.01789 15.519 6.62989 16.194 6.11589 17.018L5.93389 17.306C5.91588 17.333 5.90789 17.324 5.85189 17.212C5.72115 16.9452 5.62697 16.662 5.57189 16.37C5.52046 16.0103 5.52721 15.6446 5.59189 15.287C5.63889 15.06 5.63689 15.065 5.74389 15.011C6.20588 14.774 7.70989 14.069 7.72488 14.082ZM13.9929 14.337V14.491C13.9826 15.4933 13.8973 16.4934 13.7379 17.483C13.0785 17.2927 12.442 17.0305 11.8399 16.701C11.4859 16.507 10.9749 16.194 10.9899 16.179C10.9929 16.175 11.1439 16.096 11.3239 16.002C12.0379 15.632 12.7189 15.232 13.3119 14.836C13.5339 14.688 13.8669 14.447 13.9409 14.382L13.9929 14.337ZM4.98088 15.41C4.99588 15.41 4.99188 15.438 4.96888 15.571C4.94906 15.7003 4.93538 15.8304 4.92788 15.961C4.89788 16.493 4.98489 16.885 5.24789 17.421C5.32189 17.571 5.37988 17.695 5.37688 17.697C5.34988 17.72 2.94688 18.423 2.19088 18.63L1.75588 18.75C1.72888 18.758 1.72688 18.752 1.73588 18.69C1.81888 18.157 2.22588 17.458 2.79388 16.87C3.17188 16.48 3.47389 16.248 3.98888 15.955C4.31618 15.7673 4.64691 15.5856 4.98088 15.41ZM10.6499 16.425C10.6519 16.423 10.7409 16.47 10.8469 16.532C11.6239 16.981 12.7069 17.402 13.6299 17.613L13.7139 17.633L13.5989 17.696C13.1169 17.964 11.5279 18.625 9.90488 19.233C9.73363 19.297 9.56263 19.3617 9.39188 19.427C9.36592 19.4397 9.33833 19.4488 9.30989 19.454C9.30989 19.45 9.37688 19.322 9.45888 19.168C9.91488 18.316 10.3689 17.281 10.6029 16.563C10.6259 16.49 10.6469 16.428 10.6499 16.425ZM10.0719 16.615C10.0546 16.6726 10.0335 16.7291 10.0089 16.784C9.63999 17.6553 9.21889 18.5035 8.74789 19.324C8.66792 19.4706 8.58388 19.615 8.49589 19.757C8.49089 19.757 8.38189 19.691 8.25188 19.612C7.48188 19.14 6.79989 18.56 6.35189 17.995L6.28789 17.915L6.61988 17.824C7.70817 17.5329 8.77422 17.1643 9.80989 16.721C9.95189 16.661 10.0699 16.612 10.0719 16.615ZM13.6619 17.868C13.6629 17.868 13.6639 17.869 13.6639 17.871C13.6639 17.951 13.4809 18.699 13.3279 19.241C13.1999 19.694 13.0919 20.049 12.8929 20.678C12.8421 20.8477 12.7861 21.0158 12.7249 21.182C11.6984 21.0065 10.693 20.7247 9.72488 20.341C9.50785 20.2561 9.29464 20.1616 9.08589 20.058C9.07989 20.051 9.29888 19.948 9.57188 19.828C11.2269 19.107 12.9409 18.285 13.5269 17.932C13.5678 17.903 13.6135 17.8813 13.6619 17.868ZM5.37489 18.151C5.38388 18.16 4.92089 18.822 4.27488 19.727L3.68788 20.55C3.59088 20.689 3.44288 20.908 3.35888 21.038L3.20588 21.274L3.04388 21.137C2.85288 20.977 2.51888 20.636 2.36688 20.447C2.05488 20.058 1.84388 19.649 1.75988 19.273C1.72188 19.099 1.71988 19.011 1.75688 19C2.40069 18.8447 3.04537 18.693 3.69088 18.545L4.99089 18.24C5.19988 18.19 5.37289 18.15 5.37489 18.151ZM5.83989 18.329L5.95688 18.46C6.44554 19.0148 7.02185 19.4857 7.66289 19.854C7.77788 19.92 7.86488 19.978 7.85788 19.982C6.41873 20.5038 4.97535 21.0138 3.52788 21.512C3.50309 21.4972 3.47906 21.4812 3.45588 21.464L3.38888 21.416L3.49388 21.264C3.83388 20.771 4.26188 20.229 5.19888 19.102L5.83989 18.329ZM8.73988 20.402C8.74288 20.399 8.90488 20.456 9.10188 20.53C9.57488 20.707 9.94588 20.822 10.4489 20.948C11.0659 21.103 11.9589 21.258 12.4869 21.302C12.5669 21.308 12.6089 21.318 12.5969 21.326C12.5719 21.342 12.0369 21.52 11.6439 21.644C10.1028 22.1128 8.55743 22.5671 7.00788 23.007C6.97289 23.014 6.85088 22.982 6.85088 22.967C6.85088 22.958 6.93789 22.848 7.04389 22.721C7.57265 22.0878 8.06542 21.4255 8.51989 20.737C8.59283 20.6251 8.66616 20.5134 8.73988 20.402ZM8.09788 20.42C8.10288 20.425 7.84489 20.838 7.39189 21.552C7.19989 21.853 6.98288 22.197 6.90889 22.314C6.83389 22.432 6.72488 22.612 6.66688 22.714L6.55989 22.899L6.50589 22.885C6.37589 22.85 5.45689 22.525 5.21489 22.429C4.91389 22.309 4.59988 22.165 4.36888 22.04C4.07988 21.884 3.71388 21.652 3.74188 21.643L4.84688 21.341C6.43888 20.907 7.31988 20.658 7.89688 20.477C8.00589 20.444 8.09688 20.418 8.09788 20.42ZM12.6209 21.481H12.6269C12.6419 21.519 12.0519 23.151 11.8369 23.669C11.7879 23.785 11.7709 23.814 11.7449 23.812C11.2664 23.7516 10.7887 23.6849 10.3119 23.612C9.40588 23.474 7.88889 23.209 7.50589 23.122L7.41688 23.102L7.95989 22.98C9.12389 22.718 9.68288 22.577 10.2499 22.403C10.9807 22.1781 11.6951 21.9028 12.3879 21.579C12.5009 21.527 12.5979 21.486 12.6209 21.481Z" fill="black"/>
</g>
<defs>
<clipPath id="clip0_2_68">
<rect width="24" height="24" fill="white"/>
</clipPath>
</defs>
</svg>
