<svg width="24" height="24" viewBox="0 0 24 24" fill="none" xmlns="http://www.w3.org/2000/svg">
<g clip-path="url(#clip0_2_84)">
<path d="M23.5595 14.7228C23.5458 14.6809 23.5269 14.6409 23.5032 14.6037C23.3642 14.3405 23.0264 14.2619 22.4958 14.3716C20.8425 14.7127 20.2023 14.5028 19.9702 14.3525C21.3122 12.3043 22.4152 9.8305 23.0113 7.5228C23.2827 6.4721 23.8095 3.9991 23.1335 2.7912C23.0904 2.70853 23.0399 2.62988 22.9826 2.5562C21.6932 0.908601 19.8008 0.0248014 17.51 0.000501403C16.0153 -0.0152986 14.7395 0.346601 14.3939 0.479901C14.2228 0.447953 14.0507 0.420742 13.878 0.398301C13.4451 0.319911 13.0065 0.277168 12.5666 0.270501C11.3844 0.252101 10.3628 0.534701 9.51684 1.1111C8.65954 0.790001 4.72804 -0.533898 2.29494 1.1899C0.936045 2.1526 0.308745 3.8733 0.430345 6.3043C0.471245 7.1223 0.937245 9.6383 1.67264 12.0479C2.13244 13.5544 2.61135 14.7498 3.10605 15.6299C3.65904 16.6241 4.23195 17.2232 4.82034 17.4194C5.26775 17.5685 5.95304 17.5635 6.67844 16.6915C7.47964 15.728 8.26874 14.8657 8.62304 14.4846C9.05814 14.7201 9.52945 14.8471 10.013 14.8618C10.0131 14.8632 10.0133 14.8645 10.0134 14.8659C9.92924 14.9662 9.84683 15.068 9.76624 15.1713C9.42735 15.6015 9.35684 15.691 8.26604 15.9156C7.95584 15.9796 7.13165 16.1495 7.11965 16.7271C7.11715 16.8495 7.15254 16.958 7.21154 17.0539C7.43845 17.477 8.13315 17.6636 8.22655 17.687C9.56105 18.0205 10.7309 17.779 11.5979 17.0083C11.5809 19.2393 11.6754 21.4257 11.9433 22.0957C12.1645 22.6486 12.7051 24.0002 14.4125 24C14.663 24 14.9388 23.9709 15.2421 23.9059C17.024 23.5238 17.7978 22.7363 18.0971 21C18.2474 20.1293 18.4987 18.1247 18.6359 16.8988C18.6528 16.8285 18.6716 16.7781 18.6929 16.7626C18.6936 16.7621 18.7626 16.7155 19.1201 16.7933C19.1348 16.7965 19.1496 16.7987 19.1644 16.8001L19.4183 16.8224L19.4332 16.8234C20.28 16.8618 21.3446 16.6808 21.9644 16.3926C22.6082 16.0938 23.7701 15.3603 23.5595 14.7228ZM2.37114 11.8765C1.62764 9.4407 1.19324 6.9914 1.15884 6.3046C1.05024 4.1332 1.57594 2.6217 2.72114 1.8119C4.55785 0.513301 7.56095 1.2711 8.82915 1.6819C8.82595 1.6851 8.82254 1.688 8.81934 1.6913C6.79554 3.7353 6.84354 7.2273 6.84855 7.4408C6.84835 7.5231 6.85514 7.6397 6.86475 7.8001C6.89955 8.3874 6.96434 9.4805 6.79124 10.7185C6.63034 11.8689 6.98494 12.9949 7.76404 13.8077C7.84464 13.8918 7.92885 13.9708 8.01585 14.0451C7.66905 14.4165 6.91545 15.2377 6.11335 16.2027C5.54565 16.8852 5.15365 16.7544 5.02474 16.7114C4.63284 16.5807 4.21175 16.1243 3.78664 15.3891C3.30704 14.5501 2.82314 13.3574 2.37114 11.8765ZM8.37834 16.9636C8.20724 16.9208 8.05125 16.8504 7.94615 16.7864C8.03505 16.747 8.18355 16.6962 8.42945 16.6455C9.71275 16.3814 9.91094 16.1949 10.3437 15.6453C10.4429 15.5193 10.5553 15.3766 10.711 15.2027C10.7445 15.1651 10.7697 15.1209 10.7847 15.0729C10.9555 14.9216 11.0571 14.963 11.2216 15.0312C11.3776 15.0958 11.5294 15.2912 11.5911 15.5064C11.6202 15.608 11.653 15.8009 11.5459 15.9508C10.6416 17.2166 9.32434 17.2002 8.37834 16.9636ZM10.4723 12.9756L10.4198 13.1166C10.2868 13.4732 10.1631 13.8047 10.0864 14.1196C9.41904 14.1175 8.76964 13.8324 8.27594 13.3172C7.64804 12.6621 7.36284 11.7508 7.49344 10.8168C7.67624 9.5089 7.60875 8.37 7.57244 7.7582C7.56744 7.6725 7.56294 7.5975 7.56025 7.5383C7.85595 7.2762 9.22614 6.5421 10.2031 6.7659C10.649 6.8681 10.9207 7.1716 11.0336 7.6939C11.6182 10.3977 11.111 11.5246 10.7034 12.4302C10.6194 12.6168 10.5401 12.7931 10.4723 12.9756ZM17.836 17.5481C17.8191 17.7249 17.8002 17.9241 17.7742 18.144L17.6282 18.5823C17.6167 18.617 17.6105 18.6534 17.61 18.69C17.6041 19.1647 17.556 19.3389 17.495 19.5593C17.4316 19.7885 17.3597 20.0484 17.3156 20.6168C17.2056 22.0311 16.4374 22.8435 14.8984 23.1733C13.3829 23.4984 13.1141 22.6765 12.8772 21.9516C12.853 21.8756 12.8273 21.8001 12.8003 21.725C12.5849 21.1392 12.6092 20.3131 12.6429 19.1699C12.6594 18.6087 12.618 17.2686 12.3127 16.5237C12.3171 16.2305 12.3233 15.9328 12.3317 15.6319C12.3328 15.5938 12.3276 15.5558 12.3164 15.5193C12.3068 15.449 12.2921 15.3795 12.2725 15.3113C12.1499 14.883 11.8512 14.5247 11.4928 14.3762C11.3504 14.3172 11.089 14.209 10.775 14.2893C10.842 14.0133 10.9581 13.7018 11.084 13.3644L11.1369 13.2224C11.1964 13.0624 11.2709 12.8967 11.3499 12.7212C11.7764 11.7736 12.3605 10.4759 11.7265 7.544C11.4891 6.4459 10.6961 5.9097 9.49415 6.0342C8.77345 6.1088 8.11424 6.3996 7.78535 6.5663C7.71941 6.59972 7.65413 6.63443 7.58954 6.6704C7.68134 5.564 8.02814 3.4963 9.32524 2.1881C9.4216 2.09101 9.52283 1.9989 9.62854 1.9121C9.68103 1.90187 9.73051 1.87985 9.77324 1.8477C10.5256 1.2771 11.4677 0.997101 12.5752 1.0152C12.9843 1.0219 13.3769 1.0491 13.7494 1.0962C15.6884 1.4506 16.9933 2.543 17.7853 3.4789C18.5996 4.4412 19.0405 5.4104 19.2165 5.9332C17.8933 5.7986 16.9931 6.06 16.5368 6.7122C15.5442 8.1311 17.0798 10.8851 17.8179 12.2086C17.9532 12.4512 18.0701 12.6608 18.1068 12.7499C18.3471 13.3324 18.6583 13.7212 18.8855 14.0051C18.9551 14.0921 19.0227 14.1765 19.074 14.2501C18.6732 14.3656 17.9532 14.6326 18.0188 15.9671C18.0065 16.1234 17.9765 16.414 17.9354 16.7819C17.8893 16.9896 17.8652 17.2422 17.836 17.5481ZM18.7265 15.927C18.686 15.0954 18.9956 15.0085 19.3232 14.9165C19.3686 14.9041 19.4136 14.8905 19.4582 14.8759C19.5005 14.9133 19.5453 14.9478 19.5924 14.9789C20.1627 15.3554 21.1747 15.4002 22.5992 15.1133C22.3976 15.2902 22.0803 15.5127 21.6459 15.7144C21.2361 15.9047 20.5502 16.0474 19.8986 16.078C19.1789 16.1116 18.8127 15.9973 18.7265 15.927ZM19.296 6.6558C19.2901 7.0066 19.2418 7.325 19.1906 7.6575C19.1356 8.0151 19.0786 8.3849 19.0642 8.8337C19.05 9.2705 19.1046 9.7246 19.1574 10.1638C19.264 11.0508 19.3734 11.9641 18.9499 12.8652C18.8797 12.7406 18.817 12.6118 18.7623 12.4796C18.7096 12.352 18.5954 12.147 18.4372 11.8634C17.8216 10.7593 16.3798 8.1738 17.1179 7.1188C17.4974 6.5761 18.4587 6.5527 19.296 6.6558ZM19.5244 13.6695C19.4962 13.6335 19.4678 13.5977 19.4391 13.5621L19.4036 13.5177C20.1298 12.3182 19.9878 11.1315 19.8614 10.0792C19.8095 9.6474 19.7605 9.2396 19.7729 8.8566C19.7858 8.4505 19.8395 8.1023 19.8914 7.7655C19.9553 7.3505 20.0202 6.9212 20.0023 6.415C20.0157 6.3619 20.0211 6.2992 20.0141 6.2248C19.9684 5.7393 19.4142 4.2868 18.2847 2.9718C17.6771 2.2645 16.7951 1.4746 15.5958 0.932301C16.1209 0.825701 16.8286 0.728801 17.6202 0.746401C19.6717 0.792001 21.2948 1.5599 22.4444 3.0288C22.4689 3.06069 22.4912 3.09416 22.5111 3.129C23.2342 4.4846 22.2349 9.4041 19.5244 13.6695ZM10.7078 7.5533C10.6828 7.7327 10.3989 7.9758 10.0867 7.9758C10.0597 7.97582 10.0326 7.97395 10.0058 7.9702C9.81855 7.9442 9.62934 7.8262 9.49994 7.6546C9.45414 7.5941 9.37965 7.4766 9.39445 7.3702C9.39995 7.3301 9.42055 7.2717 9.48695 7.2214C9.60515 7.132 9.83875 7.0988 10.0965 7.1347C10.4128 7.1788 10.7391 7.3285 10.7078 7.5533ZM18.6383 7.1419C18.6494 7.2211 18.5893 7.3429 18.4852 7.4521C18.4169 7.5238 18.2732 7.6482 18.0773 7.6753C18.0525 7.67876 18.0274 7.68049 18.0023 7.6805C17.7088 7.6805 17.4609 7.4461 17.4416 7.3088C17.4176 7.1323 17.7057 6.9982 18.0027 6.9568C18.2997 6.9154 18.6138 6.9656 18.6383 7.1419Z" fill="black"/>
</g>
<defs>
<clipPath id="clip0_2_84">
<rect width="24" height="24" fill="white"/>
</clipPath>
</defs>
</svg>
