<svg width="24" height="24" viewBox="0 0 24 24" fill="none" xmlns="http://www.w3.org/2000/svg">
<g clip-path="url(#clip0_2_58)">
<path d="M21.8536 1.41581C21.5204 2.21515 21.0891 2.96997 20.5696 3.66291C19.4573 2.51271 18.1256 1.59727 16.6532 0.970742C15.1809 0.344211 13.5979 0.0193132 11.9978 0.0152665C10.3978 0.0112199 8.81313 0.328107 7.33766 0.947182C5.8622 1.56626 4.52587 2.47495 3.40772 3.61951C2.28958 4.76406 1.41233 6.12124 0.827864 7.61075C0.243398 9.10027 -0.0364132 10.6919 0.00498209 12.2914C0.0463773 13.891 0.408138 15.466 1.06887 16.9232C1.72959 18.3805 2.67587 19.6905 3.85172 20.7757L4.29622 21.1708C5.98299 22.5934 8.03058 23.5213 10.2122 23.8519C12.3939 24.1825 14.6245 23.9028 16.6569 23.0438C18.6894 22.1847 20.4445 20.78 21.7278 18.985C23.0111 17.19 23.7725 15.0748 23.9278 12.8737C24.2735 9.86111 23.3599 6.00891 21.8536 1.41581ZM5.58042 20.8745C5.45345 21.0305 5.28308 21.1454 5.09085 21.2046C4.89861 21.2639 4.69313 21.2648 4.50037 21.2073C4.30762 21.1497 4.13624 21.0364 4.00789 20.8815C3.87954 20.7266 3.79999 20.5371 3.77929 20.3371C3.75859 20.137 3.79766 19.9352 3.89157 19.7573C3.98549 19.5795 4.13003 19.4334 4.30692 19.3376C4.48382 19.2419 4.68513 19.2007 4.88542 19.2193C5.08572 19.2379 5.276 19.3155 5.43222 19.4422C5.63702 19.6157 5.76682 19.8616 5.79444 20.1285C5.82206 20.3955 5.74537 20.6628 5.58042 20.8745ZM21.7795 17.2939C18.841 21.2202 12.5194 19.8867 8.49432 20.0843C8.49432 20.0843 7.77822 20.1337 7.06202 20.2324C7.06202 20.2324 7.33372 20.109 7.67942 19.9855C10.5192 18.9978 11.8526 18.8002 13.5812 17.9112C16.8161 16.2567 20.051 12.6268 20.693 8.87331C19.4583 12.4786 15.7049 15.59 12.2971 16.8494C9.95122 17.7137 5.72862 18.5533 5.72862 18.5533L5.55572 18.4545C2.69122 17.0469 2.59252 10.8241 7.82752 8.82391C10.1241 7.93491 12.2971 8.42891 14.7912 7.83621C17.4334 7.21881 20.4955 5.24331 21.7302 2.65051C23.113 6.82371 24.7922 13.2935 21.7795 17.2939Z" fill="black"/>
</g>
<defs>
<clipPath id="clip0_2_58">
<rect width="24" height="24" fill="white"/>
</clipPath>
</defs>
</svg>
