<svg width="45" height="45" viewBox="0 0 45 45" fill="none" xmlns="http://www.w3.org/2000/svg">
<path d="M0.924491 29.0625C3.73597 38.2882 12.3211 45 22.4758 45C34.9154 45 45 34.9262 45 22.5C45 10.0736 34.9154 0 22.4758 0C10.5388 0 0.771429 9.27599 0 21.0051C0.00323145 21.0106 0.00645852 21.016 0.00968122 21.0214C0.00965548 21.0218 0.0097247 21.0206 0.00968122 21.0214L12.1128 25.9957C12.442 25.7794 12.7929 25.5921 13.1674 25.4395C14.017 25.0899 14.9129 24.9335 15.8058 24.974L21.3175 16.976C21.3156 16.9405 21.3156 16.9026 21.3156 16.8648C21.3156 12.1446 25.1534 8.30473 29.8709 8.30473C34.5903 8.30473 38.4262 12.1446 38.4262 16.8648C38.4262 21.5846 34.5903 25.4279 29.8709 25.4279C29.8071 25.4279 29.7414 25.426 29.6776 25.424L21.7912 31.0539C21.8144 31.923 21.6539 32.794 21.3098 33.6245C19.9873 36.8015 16.3218 38.3137 13.1427 36.9869C11.1996 36.1777 9.88258 34.4955 9.45298 32.5777L0.924491 29.0625Z" fill="white"/>
<path d="M13.691 35.6697C16.1456 36.6914 18.9696 35.5268 19.9931 33.0721C20.4881 31.8863 20.49 30.573 20.0009 29.3833C19.5117 28.1936 18.5887 27.2627 17.3991 26.7682C16.2191 26.2777 14.9562 26.2931 13.8453 26.7142L16.7243 27.9058C18.5336 28.659 19.3899 30.7371 18.6351 32.5468C17.8826 34.3545 15.8058 35.212 13.9955 34.4588L11.2104 33.3058C11.7037 34.3352 12.5586 35.1985 13.691 35.6697Z" fill="white"/>
<path d="M24.1712 16.8648C24.1712 20.0105 26.7291 22.5695 29.8709 22.5695C33.0146 22.5695 35.5725 20.0105 35.5725 16.8648C35.5725 13.7215 33.0146 11.1617 29.8709 11.1617C26.7291 11.1617 24.1712 13.7215 24.1712 16.8648ZM29.8806 12.5703C32.2451 12.5703 34.163 14.4896 34.163 16.8561C34.163 19.2227 32.2451 21.1403 29.8806 21.1403C27.5179 21.1403 25.6 19.2227 25.6 16.8561C25.6 14.4896 27.5179 12.5703 29.8806 12.5703Z" fill="white"/>
</svg>
