<svg width="45" height="45" viewBox="0 0 45 45" fill="none" xmlns="http://www.w3.org/2000/svg">
<path d="M45 22.5C45 34.9264 34.9264 45 22.5 45C10.0736 45 0 34.9264 0 22.5C0 10.0736 10.0736 0 22.5 0C34.9264 0 45 10.0736 45 22.5ZM23.3064 16.6106C21.118 17.5208 16.7441 19.4048 10.1849 22.2626C9.1198 22.6861 8.56185 23.1005 8.51105 23.5057C8.42521 24.1904 9.2827 24.46 10.4504 24.8272C10.6092 24.8771 10.7738 24.9289 10.9425 24.9837C12.0913 25.3572 13.6367 25.794 14.44 25.8114C15.1688 25.8271 15.9821 25.5267 16.8801 24.9101C23.0085 20.7732 26.1721 18.6822 26.3707 18.6372C26.5108 18.6054 26.705 18.5654 26.8365 18.6823C26.9681 18.7992 26.9552 19.0207 26.9412 19.0801C26.8563 19.4422 23.4903 22.5715 21.7485 24.1909C21.2054 24.6958 20.8203 25.0539 20.7415 25.1356C20.5651 25.3189 20.3853 25.4922 20.2126 25.6587C19.1453 26.6876 18.3449 27.4591 20.2569 28.7191C21.1757 29.3245 21.9109 29.8252 22.6444 30.3247C23.4454 30.8702 24.2444 31.4143 25.2781 32.0919C25.5415 32.2646 25.793 32.4439 26.038 32.6185C26.9702 33.2831 27.8078 33.8802 28.8425 33.785C29.4437 33.7297 30.0647 33.1643 30.3801 31.4782C31.1255 27.4935 32.5907 18.8597 32.9293 15.3019C32.9589 14.9902 32.9216 14.5913 32.8916 14.4162C32.8617 14.2411 32.799 13.9916 32.5714 13.8069C32.3018 13.5881 31.8857 13.542 31.6995 13.5453C30.8533 13.5602 29.5549 14.0116 23.3064 16.6106Z" fill="white"/>
</svg>
