<svg width="45" height="45" viewBox="0 0 45 45" fill="none" xmlns="http://www.w3.org/2000/svg">
<path d="M24.8485 8.44476C27.1774 8.42843 32.4084 8.44476 32.4084 8.44476L32.5015 8.53131V9.34135C32.5015 9.5651 32.3757 9.67615 32.1275 9.67615C30.9091 9.73332 30.6593 9.85417 30.2134 10.496C29.9701 10.8471 29.4899 11.6 28.9918 12.4444L24.7162 20.4403L24.5959 20.6912L29.8214 31.3824L30.1383 31.469L38.3694 11.9348C38.6552 11.1476 38.6111 10.5891 38.2436 10.2608C37.8745 9.94072 37.6149 9.75128 36.6611 9.71208L35.8886 9.67288C35.7939 9.67288 35.7041 9.63859 35.6175 9.5749C35.5326 9.51447 35.4885 9.43444 35.4885 9.33808V8.52477L35.6061 8.44149H44.9053L45 8.52477V9.33808C45 9.55856 44.8742 9.66962 44.626 9.66962C43.4077 9.72351 42.5045 9.98807 41.9199 10.4601C41.3336 10.9353 40.8763 11.5902 40.548 12.4411C40.548 12.4411 32.9783 29.7672 30.3881 35.5258C29.3968 37.4137 28.4218 37.2406 27.5644 35.4719C26.4909 33.2609 24.2617 28.3846 22.624 24.7795C20.8727 28.3922 18.4746 33.2889 17.2853 35.4947C16.1291 37.5052 15.1769 37.2422 14.4191 35.547C13.1496 32.5516 11.2347 28.4637 9.30723 24.3489C7.2402 19.9361 5.15864 15.4924 3.84281 12.3317C3.37246 11.2064 3.01807 10.4846 2.68327 10.1988C2.34684 9.91624 1.64786 9.74637 0.584673 9.68921C0.194348 9.64675 0 9.55204 0 9.39852V8.54765L0.0947209 8.46435C1.82587 8.45455 10.204 8.46435 10.204 8.46435L10.2987 8.54765V9.35768C10.2987 9.58142 10.1566 9.68921 9.87733 9.68921L8.82231 9.73332C7.91754 9.77088 7.46516 10.042 7.46516 10.5434C7.46516 10.7769 7.55989 11.1558 7.77056 11.667C9.79568 16.6007 16.7905 31.3498 16.7905 31.3498L17.0469 31.4167L21.5558 22.4237C21.0045 21.2057 20.6529 20.4256 20.6529 20.4256L17.5532 14.3339C17.5532 14.3339 16.9538 13.1156 16.7496 12.7106C16.6502 12.5135 16.5582 12.33 16.4725 12.1592C15.3849 9.99083 15.3163 9.85396 14.0402 9.68594C13.6548 9.63531 13.4556 9.58633 13.4556 9.39525V8.54109L13.5715 8.45781C16.0588 8.45454 21.5936 8.45455 21.5936 8.45455L21.8059 8.52477V9.37564C21.8059 9.56998 21.6671 9.66962 21.3846 9.66962L20.8031 9.7529C19.3333 9.86722 19.5734 10.4682 20.55 12.4133L23.5241 18.4981L26.8132 11.9381C27.3635 10.7377 27.2508 10.4372 27.0238 10.1596C26.8932 10.0028 26.4555 9.75291 25.5034 9.71371L25.1294 9.67289C25.0347 9.67289 24.9465 9.64022 24.8599 9.57652C24.775 9.5161 24.7325 9.43771 24.7325 9.33809V8.52804L24.8485 8.44476Z" fill="white"/>
</svg>
