<svg width="69" height="69" viewBox="0 0 69 69" fill="none" xmlns="http://www.w3.org/2000/svg">
<path d="M9.25655 12.3059C8.41448 11.4639 8.41448 10.0986 9.25655 9.25655C10.0986 8.41448 11.4639 8.41448 12.306 9.25655L34.5 31.4506L56.6941 9.25655C57.5361 8.41448 58.9014 8.41448 59.7435 9.25655C60.5855 10.0986 60.5855 11.4639 59.7435 12.3059L37.5494 34.5L59.7435 56.6941C60.5855 57.5361 60.5855 58.9014 59.7435 59.7435C58.9014 60.5855 57.5361 60.5855 56.6941 59.7435L34.5 37.5494L12.306 59.7435C11.4639 60.5855 10.0986 60.5855 9.25655 59.7435C8.41449 58.9014 8.41449 57.5361 9.25655 56.6941L31.4506 34.5L9.25655 12.3059Z" fill="white"/>
</svg>
